<?xml version="1.0" encoding="UTF-8" standalone="no"?>
<!DOCTYPE svg PUBLIC "-//W3C//DTD SVG 1.1//EN"
 "http://www.w3.org/Graphics/SVG/1.1/DTD/svg11.dtd">
<!-- Generated by graphviz version 2.47.3 (20210619.1520)
 -->
<!-- Title: dependencies Pages: 1 -->
<svg width="413pt" height="174pt"
 viewBox="0.00 0.00 413.00 173.80" xmlns="http://www.w3.org/2000/svg" xmlns:xlink="http://www.w3.org/1999/xlink">
<g id="graph0" class="graph" transform="scale(1 1) rotate(0) translate(4 169.8)">
<title>dependencies</title>
<polygon fill="white" stroke="transparent" points="-4,4 -4,-169.8 409,-169.8 409,4 -4,4"/>
<text text-anchor="middle" x="202.5" y="-8.2" font-family="sans-serif" font-size="14.00">dependencies</text>
<g id="clust1" class="cluster">
<title>cluster_CoursesModule</title>
<polygon fill="none" stroke="black" stroke-dasharray="1,5" points="8,-32.8 8,-157.8 397,-157.8 397,-32.8 8,-32.8"/>
</g>
<g id="clust6" class="cluster">
<title>cluster_CoursesModule_providers</title>
<polygon fill="none" stroke="black" points="16,-40.8 16,-92.8 389,-92.8 389,-40.8 16,-40.8"/>
</g>
<!-- CoursesRepository -->
<g id="node1" class="node">
<title>CoursesRepository</title>
<ellipse fill="#fdb462" stroke="black" cx="296" cy="-66.8" rx="84.55" ry="18"/>
<text text-anchor="middle" x="296" y="-62.6" font-family="Times,serif" font-size="14.00">CoursesRepository</text>
</g>
<!-- CoursesModule -->
<g id="node3" class="node">
<title>CoursesModule</title>
<polygon fill="#8dd3c7" stroke="black" points="254.15,-149.8 251.15,-153.8 230.15,-153.8 227.15,-149.8 149.85,-149.8 149.85,-113.8 254.15,-113.8 254.15,-149.8"/>
<text text-anchor="middle" x="202" y="-127.6" font-family="Times,serif" font-size="14.00">CoursesModule</text>
</g>
<!-- CoursesRepository&#45;&gt;CoursesModule -->
<g id="edge1" class="edge">
<title>CoursesRepository&#45;&gt;CoursesModule</title>
<path fill="none" stroke="black" d="M232.9,-79.03C232.9,-79.03 232.9,-103.48 232.9,-103.48"/>
<polygon fill="black" stroke="black" points="229.4,-103.48 232.9,-113.48 236.4,-103.48 229.4,-103.48"/>
</g>
<!-- LessonsRepository -->
<g id="node2" class="node">
<title>LessonsRepository</title>
<ellipse fill="#fdb462" stroke="black" cx="109" cy="-66.8" rx="84.55" ry="18"/>
<text text-anchor="middle" x="109" y="-62.6" font-family="Times,serif" font-size="14.00">LessonsRepository</text>
</g>
<!-- LessonsRepository&#45;&gt;CoursesModule -->
<g id="edge2" class="edge">
<title>LessonsRepository&#45;&gt;CoursesModule</title>
<path fill="none" stroke="black" d="M171.6,-79.03C171.6,-79.03 171.6,-103.48 171.6,-103.48"/>
<polygon fill="black" stroke="black" points="168.1,-103.48 171.6,-113.48 175.1,-103.48 168.1,-103.48"/>
</g>
</g>
</svg>
