<?xml version="1.0" encoding="UTF-8" standalone="no"?>
<!DOCTYPE svg PUBLIC "-//W3C//DTD SVG 1.1//EN"
 "http://www.w3.org/Graphics/SVG/1.1/DTD/svg11.dtd">
<!-- Generated by graphviz version 2.47.3 (20210619.1520)
 -->
<!-- Title: dependencies Pages: 1 -->
<svg width="624pt" height="250pt"
 viewBox="0.00 0.00 624.00 249.80" xmlns="http://www.w3.org/2000/svg" xmlns:xlink="http://www.w3.org/1999/xlink">
<g id="graph0" class="graph" transform="scale(1 1) rotate(0) translate(4 245.8)">
<title>dependencies</title>
<polygon fill="white" stroke="transparent" points="-4,4 -4,-245.8 620,-245.8 620,4 -4,4"/>
<text text-anchor="middle" x="308" y="-8.2" font-family="sans-serif" font-size="14.00">dependencies</text>
<g id="clust1" class="cluster">
<title>cluster_AppModule</title>
<polygon fill="none" stroke="black" stroke-dasharray="1,5" points="8,-108.8 8,-233.8 388,-233.8 388,-108.8 8,-108.8"/>
</g>
<g id="clust3" class="cluster">
<title>cluster_AppModule_imports</title>
<polygon fill="none" stroke="black" points="154,-116.8 154,-168.8 380,-168.8 380,-116.8 154,-116.8"/>
</g>
<g id="clust6" class="cluster">
<title>cluster_AppModule_providers</title>
<polygon fill="none" stroke="black" points="16,-116.8 16,-168.8 146,-168.8 146,-116.8 16,-116.8"/>
</g>
<g id="clust7" class="cluster">
<title>cluster_AuthModule</title>
<polygon fill="none" stroke="black" stroke-dasharray="1,5" points="33,-32.8 33,-100.8 211,-100.8 211,-32.8 33,-32.8"/>
</g>
<g id="clust12" class="cluster">
<title>cluster_AuthModule_providers</title>
<polygon fill="none" stroke="black" points="41,-40.8 41,-92.8 203,-92.8 203,-40.8 41,-40.8"/>
</g>
<g id="clust13" class="cluster">
<title>cluster_CoursesModule</title>
<polygon fill="none" stroke="black" stroke-dasharray="1,5" points="219,-32.8 219,-100.8 608,-100.8 608,-32.8 219,-32.8"/>
</g>
<g id="clust18" class="cluster">
<title>cluster_CoursesModule_providers</title>
<polygon fill="none" stroke="black" points="227,-40.8 227,-92.8 600,-92.8 600,-40.8 227,-40.8"/>
</g>
<!-- AuthModule -->
<g id="node1" class="node">
<title>AuthModule</title>
<polygon fill="#8dd3c7" stroke="black" points="249.55,-160.8 246.55,-164.8 225.55,-164.8 222.55,-160.8 162.45,-160.8 162.45,-124.8 249.55,-124.8 249.55,-160.8"/>
<text text-anchor="middle" x="206" y="-138.6" font-family="Times,serif" font-size="14.00">AuthModule</text>
</g>
<!-- AppModule -->
<g id="node3" class="node">
<title>AppModule</title>
<polygon fill="#8dd3c7" stroke="black" points="247.66,-225.8 244.66,-229.8 223.66,-229.8 220.66,-225.8 164.34,-225.8 164.34,-189.8 247.66,-189.8 247.66,-225.8"/>
<text text-anchor="middle" x="206" y="-203.6" font-family="Times,serif" font-size="14.00">AppModule</text>
</g>
<!-- AuthModule&#45;&gt;AppModule -->
<g id="edge1" class="edge">
<title>AuthModule&#45;&gt;AppModule</title>
<path fill="none" stroke="black" d="M206,-160.91C206,-160.91 206,-179.79 206,-179.79"/>
<polygon fill="black" stroke="black" points="202.5,-179.79 206,-189.79 209.5,-179.79 202.5,-179.79"/>
</g>
<!-- CoursesModule -->
<g id="node2" class="node">
<title>CoursesModule</title>
<polygon fill="#8dd3c7" stroke="black" points="372.15,-160.8 369.15,-164.8 348.15,-164.8 345.15,-160.8 267.85,-160.8 267.85,-124.8 372.15,-124.8 372.15,-160.8"/>
<text text-anchor="middle" x="320" y="-138.6" font-family="Times,serif" font-size="14.00">CoursesModule</text>
</g>
<!-- CoursesModule&#45;&gt;AppModule -->
<g id="edge2" class="edge">
<title>CoursesModule&#45;&gt;AppModule</title>
<path fill="none" stroke="black" d="M320,-160.91C320,-180.14 320,-207.8 320,-207.8 320,-207.8 257.8,-207.8 257.8,-207.8"/>
<polygon fill="black" stroke="black" points="257.8,-204.3 247.8,-207.8 257.8,-211.3 257.8,-204.3"/>
</g>
<!-- AppService -->
<g id="node4" class="node">
<title>AppService</title>
<ellipse fill="#fdb462" stroke="black" cx="81" cy="-142.8" rx="56.74" ry="18"/>
<text text-anchor="middle" x="81" y="-138.6" font-family="Times,serif" font-size="14.00">AppService</text>
</g>
<!-- AppService&#45;&gt;AppModule -->
<g id="edge3" class="edge">
<title>AppService&#45;&gt;AppModule</title>
<path fill="none" stroke="black" d="M81,-160.91C81,-180.14 81,-207.8 81,-207.8 81,-207.8 154.03,-207.8 154.03,-207.8"/>
<polygon fill="black" stroke="black" points="154.03,-211.3 164.03,-207.8 154.03,-204.3 154.03,-211.3"/>
</g>
<!-- AuthRepository -->
<g id="node5" class="node">
<title>AuthRepository</title>
<ellipse fill="#fdb462" stroke="black" cx="122" cy="-66.8" rx="72.95" ry="18"/>
<text text-anchor="middle" x="122" y="-62.6" font-family="Times,serif" font-size="14.00">AuthRepository</text>
</g>
<!-- AuthRepository&#45;&gt;AuthModule -->
<g id="edge4" class="edge">
<title>AuthRepository&#45;&gt;AuthModule</title>
<path fill="none" stroke="black" d="M178.48,-78.34C178.48,-78.34 178.48,-114.63 178.48,-114.63"/>
<polygon fill="black" stroke="black" points="174.98,-114.63 178.48,-124.63 181.98,-114.63 174.98,-114.63"/>
</g>
<!-- CoursesRepository -->
<g id="node6" class="node">
<title>CoursesRepository</title>
<ellipse fill="#fdb462" stroke="black" cx="507" cy="-66.8" rx="84.55" ry="18"/>
<text text-anchor="middle" x="507" y="-62.6" font-family="Times,serif" font-size="14.00">CoursesRepository</text>
</g>
<!-- CoursesRepository&#45;&gt;CoursesModule -->
<g id="edge5" class="edge">
<title>CoursesRepository&#45;&gt;CoursesModule</title>
<path fill="none" stroke="black" d="M507,-84.81C507,-107.29 507,-142.8 507,-142.8 507,-142.8 382.59,-142.8 382.59,-142.8"/>
<polygon fill="black" stroke="black" points="382.59,-139.3 372.59,-142.8 382.59,-146.3 382.59,-139.3"/>
</g>
<!-- LessonsRepository -->
<g id="node7" class="node">
<title>LessonsRepository</title>
<ellipse fill="#fdb462" stroke="black" cx="320" cy="-66.8" rx="84.55" ry="18"/>
<text text-anchor="middle" x="320" y="-62.6" font-family="Times,serif" font-size="14.00">LessonsRepository</text>
</g>
<!-- LessonsRepository&#45;&gt;CoursesModule -->
<g id="edge6" class="edge">
<title>LessonsRepository&#45;&gt;CoursesModule</title>
<path fill="none" stroke="black" d="M320,-84.81C320,-84.81 320,-114.65 320,-114.65"/>
<polygon fill="black" stroke="black" points="316.5,-114.65 320,-124.65 323.5,-114.65 316.5,-114.65"/>
</g>
</g>
</svg>
